<svg width="50" height="29" viewBox="0 0 39 40" fill="none" xmlns="http://www.w3.org/2000/svg">
<path fill-rule="evenodd" clip-rule="evenodd" d="M32.3153 25.7431C29.0799 25.7431 26.4565 23.082 26.4565 19.7993C26.4565 16.5166 29.0799 13.8555 32.3153 13.8555C35.1393 13.8555 37.5053 15.9471 38.0595 18.6454L35.1133 18.6355C34.6618 17.5527 33.6009 16.8213 32.3692 16.8213C30.727 16.8213 29.3956 18.1716 29.3956 19.8377C29.3956 21.5041 30.727 22.855 32.3692 22.855C33.6009 22.855 34.6749 22.1315 35.1264 21.0486L38.072 21.0347C37.5259 23.7435 35.1466 25.7431 32.3153 25.7431ZM19.7178 25.8828C16.4824 25.8828 13.6678 23.2424 13.6678 19.9593L13.6644 9.95813H16.6033L16.6073 15.5479C17.4223 14.6115 18.3504 13.9874 19.7178 13.9947C22.9531 14.013 25.5763 16.6563 25.5763 19.939C25.5763 23.2217 22.9531 25.8828 19.7178 25.8828ZM10.0624 25.7893V24.1633C9.2478 25.0997 8.31949 25.7238 6.95208 25.7164C3.71663 25.6986 1.0934 23.0549 1.0934 19.7722C1.0934 16.4895 3.71663 13.8284 6.95208 13.8284C10.1877 13.8284 13.0024 16.4687 13.0024 19.7516L13.0057 25.7685L10.0624 25.7893ZM19.572 0.454224C8.87894 0.454224 0.210205 9.2494 0.210205 20.0981C0.210205 30.9471 8.87894 39.7423 19.572 39.7423C30.265 39.7423 38.9338 30.9471 38.9338 20.0981C38.9338 9.2494 30.265 0.454224 19.572 0.454224Z" fill="#828282"/>
</svg>
