<svg width="20" height="19" viewBox="0 0 20 19" fill="none" xmlns="http://www.w3.org/2000/svg">
<path fill-rule="evenodd" clip-rule="evenodd" d="M1.29173 2.58333H18.0834C18.7968 2.58333 19.3751 2.00503 19.3751 1.29167C19.3751 0.578299 18.7968 0 18.0834 0H1.29173C0.57836 0 6.10352e-05 0.578299 6.10352e-05 1.29167C6.10352e-05 2.00503 0.57836 2.58333 1.29173 2.58333ZM1.29173 10.3333H18.0834C18.7968 10.3333 19.3751 9.75503 19.3751 9.04167C19.3751 8.3283 18.7968 7.75 18.0834 7.75H1.29173C0.57836 7.75 6.10352e-05 8.3283 6.10352e-05 9.04167C6.10352e-05 9.75503 0.57836 10.3333 1.29173 10.3333ZM18.0834 18.0833H1.29173C0.57836 18.0833 6.10352e-05 17.505 6.10352e-05 16.7917C6.10352e-05 16.0783 0.57836 15.5 1.29173 15.5H18.0834C18.7968 15.5 19.3751 16.0783 19.3751 16.7917C19.3751 17.505 18.7968 18.0833 18.0834 18.0833Z" fill="url(#paint0_linear)"/>
<mask id="mask0" mask-type="alpha" maskUnits="userSpaceOnUse" x="0" y="0" width="20" height="19">
<path fill-rule="evenodd" clip-rule="evenodd" d="M1.29173 2.58333H18.0834C18.7968 2.58333 19.3751 2.00503 19.3751 1.29167C19.3751 0.578299 18.7968 0 18.0834 0H1.29173C0.57836 0 6.10352e-05 0.578299 6.10352e-05 1.29167C6.10352e-05 2.00503 0.57836 2.58333 1.29173 2.58333ZM1.29173 10.3333H18.0834C18.7968 10.3333 19.3751 9.75503 19.3751 9.04167C19.3751 8.3283 18.7968 7.75 18.0834 7.75H1.29173C0.57836 7.75 6.10352e-05 8.3283 6.10352e-05 9.04167C6.10352e-05 9.75503 0.57836 10.3333 1.29173 10.3333ZM18.0834 18.0833H1.29173C0.57836 18.0833 6.10352e-05 17.505 6.10352e-05 16.7917C6.10352e-05 16.0783 0.57836 15.5 1.29173 15.5H18.0834C18.7968 15.5 19.3751 16.0783 19.3751 16.7917C19.3751 17.505 18.7968 18.0833 18.0834 18.0833Z" fill="white"/>
</mask>
<g mask="url(#mask0)">
</g>
<defs>
<linearGradient id="paint0_linear" x1="6.10352e-05" y1="0" x2="6.10352e-05" y2="18.0833" gradientUnits="userSpaceOnUse">
<stop stop-color="#9095A4"/>
<stop offset="1" stop-color="#575C6B"/>
</linearGradient>
</defs>
</svg>
