<svg width="118" height="37" viewBox="0 0 118 37" fill="none" xmlns="http://www.w3.org/2000/svg">
<path fill-rule="evenodd" clip-rule="evenodd" d="M44.0588 10.1035L44.0566 10.1067C44.0426 10.1285 44.028 10.1499 44.0117 10.1702L44.0067 10.1757C43.9924 10.1928 43.9772 10.2091 43.9612 10.2247L43.9581 10.2277L43.9507 10.2346L43.9433 10.2413L43.9432 10.2413L43.9408 10.2436C43.9287 10.2543 43.9163 10.2646 43.9034 10.2745L43.9005 10.2768C43.8945 10.2815 43.8884 10.2862 43.8822 10.2906C43.8629 10.3043 43.8431 10.317 43.8225 10.3285L43.8209 10.3295C43.799 10.3414 43.7763 10.3519 43.7531 10.3613C43.7494 10.3628 43.7457 10.3641 43.742 10.3654L43.7361 10.3676C43.7182 10.3743 43.7 10.3803 43.6813 10.3854L43.6702 10.3884L43.6613 10.3906C43.6431 10.395 43.6246 10.3984 43.6057 10.4012L43.5986 10.4023C43.5945 10.403 43.5903 10.4037 43.5862 10.4042C43.5629 10.4069 43.5394 10.4084 43.5155 10.4086L43.5111 10.4089L43.5099 10.4088H37.3644L34.4538 19.7381L34.4536 19.7386L34.451 19.747C34.4504 19.749 34.4494 19.7507 34.4488 19.7526L34.4472 19.7571L34.4408 19.7766L34.4365 19.7886L34.4349 19.7925C34.4327 19.7982 34.4302 19.8038 34.4277 19.8093L34.4246 19.8162L34.4222 19.8216C34.4188 19.8294 34.4153 19.8374 34.4115 19.845L34.4097 19.8487L34.4091 19.8498C34.4051 19.8578 34.4005 19.8655 34.3961 19.8733L34.3879 19.8879L34.3818 19.8982L34.3774 19.9052C34.3727 19.9125 34.3675 19.9196 34.3625 19.9268L34.3605 19.9298C34.3583 19.9329 34.3563 19.9362 34.3541 19.9394L34.3477 19.9478L34.3396 19.9583L34.3326 19.9668L34.3291 19.9709L34.3288 19.9711L34.3247 19.9759C34.3195 19.9821 34.3144 19.9882 34.309 19.9941L34.2963 20.0079L34.291 20.0135L34.2866 20.0175L34.2836 20.0203L34.2825 20.0213L34.2791 20.0245L34.2709 20.0324L34.2657 20.0373C34.26 20.0426 34.2542 20.0478 34.2481 20.0528L34.2434 20.0572C34.2417 20.0586 34.2398 20.0595 34.2382 20.0608C34.2313 20.0664 34.2244 20.0719 34.2174 20.0771L34.2143 20.0795L34.2105 20.0825C34.2045 20.0869 34.1982 20.0908 34.1919 20.095C34.1825 20.1014 34.1728 20.1075 34.1631 20.1134L34.1569 20.1172C34.1546 20.1187 34.1523 20.1202 34.1499 20.1216L34.1465 20.1233L34.144 20.1246L34.1404 20.1263C34.134 20.1298 34.1274 20.1332 34.1209 20.1365L34.1034 20.1449L34.0979 20.1477C34.0957 20.1489 34.0935 20.1501 34.0912 20.1511L18.4062 27.0537L13.6722 36.6373L13.6704 36.6403L13.6686 36.6433C13.6554 36.6694 13.641 36.6945 13.6246 36.7183L13.6232 36.7203C13.608 36.742 13.5915 36.7624 13.574 36.782L13.5698 36.7868L13.5613 36.7962C13.5439 36.8146 13.5256 36.8321 13.5063 36.8482L13.4984 36.8546L13.4909 36.8604C13.4736 36.874 13.4556 36.8869 13.4369 36.8988L13.432 36.9021L13.4251 36.9066C13.4029 36.9201 13.3798 36.9319 13.3561 36.9426L13.342 36.9487C13.2931 36.9694 13.2415 36.9842 13.188 36.9922L13.1725 36.9943C13.1463 36.9976 13.12 36.9999 13.0932 36.9999H13.0928L13.0919 37C13.062 37 13.032 36.9971 13.002 36.9928L12.9982 36.9926L12.9971 36.9925L12.9938 36.9922C12.9889 36.9914 12.9841 36.9904 12.9794 36.9893L12.9695 36.9871C12.9586 36.985 12.9477 36.983 12.9368 36.9803C12.9203 36.9762 12.9043 36.9711 12.8884 36.9658L12.881 36.9635L12.8753 36.9618L12.8709 36.9603C12.8477 36.9517 12.8251 36.9419 12.8032 36.9309L12.8025 36.9305L12.7957 36.9267C12.7791 36.918 12.7629 36.9089 12.7472 36.899C12.741 36.895 12.7352 36.8906 12.7291 36.8864L12.7268 36.8848L12.7267 36.8847L12.7267 36.8847C12.7162 36.8776 12.7059 36.8705 12.696 36.8627C12.6885 36.8568 12.6815 36.8506 12.6744 36.8444L12.6743 36.8444L12.6708 36.8412L12.6648 36.8361L12.6562 36.8287L12.6489 36.822L12.6404 36.8136C12.6347 36.8079 12.6293 36.802 12.6238 36.7962L12.6237 36.7961L12.6219 36.7942L12.6154 36.7873L12.6104 36.7819L12.6058 36.7768C12.597 36.7667 12.589 36.7563 12.581 36.7458L12.5766 36.7401C12.5732 36.7358 12.5699 36.7315 12.5667 36.7271C12.5594 36.7169 12.5529 36.7064 12.5463 36.6959L12.5416 36.6885L12.5415 36.6883L12.536 36.6796L12.5323 36.6734C12.5269 36.6638 12.522 36.6541 12.517 36.6443L12.513 36.6365L12.5079 36.6264L12.5031 36.6162C12.4992 36.6077 12.4959 36.5989 12.4925 36.5903C12.488 36.5791 12.4835 36.568 12.4796 36.5566L12.4768 36.5479L12.4741 36.5386L12.4724 36.5328L12.4712 36.5287L12.4661 36.511C12.4647 36.5059 12.4633 36.5008 12.4621 36.4956C12.4608 36.4902 12.4598 36.4848 12.4588 36.4793L12.4588 36.4792L12.4572 36.471L12.4565 36.4674L12.453 36.4492C12.4521 36.4441 12.4513 36.439 12.4506 36.4338C12.4496 36.4268 12.449 36.4198 12.4484 36.4128L12.4476 36.4034L12.4469 36.3955C12.4461 36.3875 12.4454 36.3795 12.445 36.3713C12.4446 36.3588 12.4448 36.3462 12.445 36.3335L12.4451 36.3297L12.4452 36.3242L12.4452 36.3213C12.4452 36.3169 12.4452 36.3124 12.4455 36.3079C12.4465 36.2894 12.4486 36.2708 12.4512 36.2521L12.4516 36.2477L12.4519 36.2441L12.4523 36.242L12.4532 36.2356L15.1573 18.4452L0.267093 7.48402C0.264377 7.48203 0.261887 7.47991 0.259397 7.4778L0.253698 7.47309C0.244192 7.46566 0.234772 7.45813 0.225612 7.45017C0.217662 7.44326 0.210143 7.43618 0.202625 7.42901C0.195106 7.42183 0.187761 7.41457 0.180675 7.40705C0.172638 7.39865 0.164947 7.39008 0.157515 7.38133C0.151465 7.37425 0.145589 7.36699 0.139799 7.35964C0.132453 7.35028 0.125367 7.34075 0.118627 7.33104C0.113269 7.32334 0.108084 7.31547 0.103071 7.30751C0.097022 7.29789 0.0910592 7.28818 0.0855284 7.27829C0.0805162 7.26937 0.0757632 7.26027 0.0710966 7.25109C0.0665165 7.24182 0.0620227 7.23246 0.0577883 7.22301C0.0532081 7.21269 0.0488872 7.20219 0.0448256 7.19161C0.0413688 7.18277 0.0381714 7.17394 0.0351467 7.16493C0.0313444 7.15365 0.0278876 7.14236 0.0246902 7.13082C0.022184 7.12181 0.0199372 7.11271 0.0177767 7.10353C0.0151842 7.09224 0.0127645 7.08087 0.0107769 7.06941C0.00896209 7.05927 0.00740656 7.04903 0.00611029 7.03871C0.00481403 7.02821 0.00360417 7.0178 0.00273999 7.00722C0.00170298 6.99515 0.00127089 6.98308 0.000925215 6.97101L0.000513351 6.96355C0.000287331 6.96023 6.10352e-05 6.95692 6.10352e-05 6.95351C6.10352e-05 6.95102 0.000280368 6.94862 0.00050026 6.94621L0.000752379 6.94328C0.000925215 6.93042 0.00170298 6.91747 0.00265358 6.90462L0.00289244 6.90102C0.00340604 6.89323 0.00391532 6.88551 0.00481403 6.87785C0.00619671 6.8656 0.00827074 6.85345 0.0103448 6.84129L0.0117833 6.83288C0.0128757 6.82639 0.0139688 6.81989 0.015357 6.81347C0.0176903 6.80236 0.0207149 6.79134 0.0237396 6.78032L0.0247665 6.77649C0.0270915 6.7678 0.0294097 6.75913 0.0321221 6.75067C0.0346642 6.74281 0.0375888 6.73506 0.0405048 6.72734L0.0427515 6.72136L0.0440566 6.71788C0.0475866 6.70846 0.0511082 6.69906 0.0551093 6.68987C0.0583237 6.68263 0.0618469 6.67544 0.0653656 6.66827L0.0653706 6.66826L0.0672942 6.66433C0.0727386 6.65322 0.0781829 6.6422 0.0841457 6.63144C0.0873978 6.6256 0.0909556 6.61981 0.0945062 6.61403L0.0977134 6.60879C0.10454 6.59777 0.111367 6.58683 0.118799 6.57616L0.121233 6.57234L0.124244 6.56768C0.12615 6.56507 0.128161 6.56265 0.130176 6.56023L0.135046 6.55421C0.142391 6.5445 0.14991 6.53496 0.157774 6.52569C0.164514 6.51773 0.171428 6.51003 0.178514 6.50251C0.185687 6.4949 0.19286 6.48747 0.200378 6.48021C0.208588 6.47225 0.217057 6.46455 0.225612 6.45703C0.232698 6.45082 0.239871 6.44478 0.247303 6.43883C0.256463 6.43149 0.26571 6.4244 0.275216 6.41767C0.282994 6.41215 0.290858 6.40682 0.298894 6.40157C0.308228 6.39553 0.317647 6.38967 0.32724 6.38416C0.336227 6.37892 0.345387 6.37402 0.354634 6.36921C0.363622 6.36457 0.372695 6.36011 0.381856 6.35591C0.392139 6.35119 0.402596 6.34681 0.413225 6.34261C0.421867 6.3392 0.430509 6.33597 0.439237 6.33299C0.450472 6.32906 0.461706 6.32556 0.4732 6.32232C0.482101 6.31978 0.491002 6.31742 0.499989 6.31532C0.511137 6.3127 0.522371 6.31025 0.533779 6.30824C0.543803 6.30649 0.553914 6.30491 0.564025 6.3036C0.574309 6.30229 0.584679 6.30107 0.595135 6.30019C0.607061 6.29923 0.618987 6.2987 0.630912 6.29835L0.638283 6.29794H0.638291H0.638299C0.641567 6.29771 0.644839 6.29748 0.648196 6.29748H5.66009L1.52482 1.0654C1.52241 1.06239 1.52028 1.05926 1.51814 1.05613L1.51367 1.04974C1.5065 1.04012 1.49941 1.03041 1.49276 1.02035C1.48697 1.01169 1.48161 1.00286 1.47634 0.993934L1.47512 0.991855C1.47008 0.983287 1.46508 0.974765 1.46044 0.965943C1.45525 0.956146 1.45041 0.946262 1.44575 0.93629C1.44143 0.927106 1.43728 0.917834 1.43339 0.908475C1.42916 0.89824 1.42527 0.887831 1.42155 0.877422C1.41809 0.867713 1.41481 0.857916 1.41179 0.848032C1.40876 0.837885 1.406 0.827739 1.4034 0.817505C1.40064 0.806833 1.39822 0.796162 1.39606 0.785315C1.39416 0.775606 1.39243 0.765809 1.39096 0.756012C1.38923 0.744641 1.38767 0.73327 1.38655 0.721724C1.3856 0.712014 1.38491 0.702393 1.38439 0.692683C1.38379 0.681225 1.38327 0.669766 1.38327 0.65822C1.38327 0.647898 1.38361 0.637577 1.38405 0.627255C1.38448 0.616496 1.385 0.605737 1.38603 0.594891C1.38707 0.583257 1.38871 0.571711 1.39035 0.560165L1.39132 0.552007C1.39173 0.548114 1.39215 0.544227 1.39286 0.540309L1.39398 0.535285L1.39493 0.531212C1.39712 0.519569 1.39995 0.508092 1.40281 0.496539L1.40281 0.496537L1.40306 0.495524L1.40474 0.488683L1.40474 0.488677L1.40474 0.488673C1.40647 0.481581 1.4082 0.474501 1.41023 0.46762C1.41288 0.45848 1.41607 0.449459 1.41925 0.440459L1.4212 0.434906L1.42382 0.427382C1.42626 0.420341 1.42869 0.413314 1.43149 0.406478C1.4347 0.398513 1.43835 0.390713 1.44201 0.382904L1.44201 0.382902L1.44201 0.382901L1.44201 0.3829L1.44201 0.382898L1.44201 0.382897L1.44201 0.382895L1.44488 0.376738L1.44802 0.369882C1.45135 0.362589 1.45468 0.355279 1.45836 0.348222C1.46206 0.341134 1.46617 0.33425 1.47029 0.327336L1.47409 0.320931L1.47696 0.315982C1.48142 0.308282 1.48584 0.300624 1.49068 0.293203C1.49501 0.286664 1.4997 0.28028 1.50439 0.273892L1.5044 0.273889L1.50857 0.268186L1.51135 0.264318C1.51689 0.256586 1.52244 0.248854 1.52836 0.241508C1.53282 0.235971 1.5376 0.230624 1.54239 0.225257L1.54755 0.219465L1.55201 0.214435L1.55201 0.214434L1.55201 0.214433C1.55835 0.207265 1.56468 0.200116 1.5714 0.193311C1.57621 0.188446 1.58126 0.183778 1.5863 0.179122L1.5863 0.179122L1.5863 0.179121L1.5863 0.17912L1.5863 0.17912L1.5863 0.179119L1.5863 0.179118L1.59128 0.174505C1.60052 0.165845 1.60977 0.157273 1.61945 0.149226L1.62251 0.146472L1.62602 0.143365C1.62881 0.141086 1.63174 0.139031 1.63466 0.136977L1.64131 0.132169C1.6509 0.124821 1.66058 0.117649 1.67061 0.110826C1.67916 0.105053 1.68789 0.0996295 1.69662 0.0942938C1.70569 0.0886957 1.71485 0.0832725 1.72427 0.0781117C1.73395 0.0728634 1.74372 0.067965 1.75357 0.0632416C1.76273 0.058868 1.7718 0.0545819 1.78114 0.0506458C1.79125 0.0463597 1.80136 0.0424235 1.81164 0.0386622C1.82141 0.0350759 1.83109 0.031752 1.84102 0.0286905C1.85088 0.025629 1.86081 0.0228299 1.87075 0.0202933C1.88147 0.0174942 1.89218 0.0149576 1.90307 0.0127708C1.91249 0.0109339 1.92191 0.00927193 1.93142 0.00778493C1.94282 0.00594803 1.95432 0.00437355 1.9659 0.00323643C1.97523 0.00236172 1.98465 0.00166195 1.99398 0.00113712C2.00548 0.000437355 2.01697 0 2.02855 0C2.03866 0 2.04877 0.000349884 2.05888 0.00078724C2.06951 0.0012246 2.08006 0.00174942 2.09077 0.00279907C2.10244 0.0039362 2.11402 0.00559815 2.12568 0.00734757L2.13403 0.00837426C2.13761 0.0087654 2.14118 0.00915616 2.14478 0.00979676L21.4991 3.50838L21.5105 3.51065C21.5166 3.51183 21.5225 3.51332 21.5285 3.51481L21.5372 3.51695L21.5476 3.51928C21.554 3.52067 21.5604 3.52207 21.5668 3.52395L21.5693 3.52477L21.5709 3.52535C21.58 3.52804 21.5888 3.53125 21.5977 3.53446L21.604 3.53672L21.6122 3.53953L21.6236 3.54347L21.6315 3.54651C21.6378 3.54908 21.6439 3.55203 21.65 3.55499L21.6593 3.55937L21.6677 3.56319C21.6749 3.56646 21.6822 3.56973 21.6892 3.57346C21.6945 3.57631 21.6997 3.57946 21.7049 3.58262L21.7049 3.58265L21.7128 3.58736L21.7216 3.59248C21.7291 3.59681 21.7366 3.60113 21.7437 3.60591C21.7477 3.60857 21.7515 3.61146 21.7553 3.61433L21.7631 3.62008L21.7653 3.62174L21.7736 3.62779C21.7807 3.63288 21.7878 3.63798 21.7945 3.64343C21.8028 3.65022 21.8106 3.65744 21.8184 3.66467L21.8231 3.66897L21.8294 3.67459L21.8295 3.67463C21.8334 3.67809 21.8374 3.68156 21.8411 3.68524C21.8504 3.69441 21.8591 3.7042 21.8677 3.71396L21.8693 3.71568L21.8749 3.72179C21.8778 3.72497 21.8808 3.72815 21.8836 3.73152L21.8892 3.73825L21.8901 3.73921L27.7752 11.0198L37.6757 5.67512L37.6779 5.67407C37.6845 5.67057 37.6914 5.66751 37.6982 5.66419L37.6984 5.66411L37.6984 5.66409C37.7082 5.65931 37.718 5.65454 37.728 5.65028L37.7302 5.64928L37.7318 5.64848L37.7365 5.64635L37.7431 5.64377L37.7465 5.64256L37.7498 5.64142L37.75 5.64134L37.7571 5.63882L37.7749 5.63235L37.7853 5.62885C37.7961 5.62535 37.8071 5.62238 37.8181 5.61949L37.8232 5.61818C37.8304 5.61633 37.8376 5.61449 37.8447 5.61293L37.8509 5.61142L37.859 5.60952C37.8612 5.60909 37.8633 5.60881 37.8655 5.60854L37.8689 5.60808L37.8708 5.60777L37.8796 5.60646C37.8885 5.60506 37.8974 5.60366 37.9063 5.60261L37.9131 5.60167L37.9219 5.60051L37.9262 5.60029L37.9272 5.60026L37.9294 5.60016L37.9408 5.59964C37.9505 5.59902 37.9601 5.5985 37.9698 5.59832C37.9803 5.59815 37.991 5.59841 38.0016 5.59876C38.0127 5.59911 38.0238 5.59964 38.035 5.6006L38.0463 5.60174L38.0623 5.60366C38.075 5.60532 38.0876 5.60725 38.1002 5.60961C38.1033 5.61022 38.1064 5.61048 38.1095 5.61109C38.1121 5.61162 38.1147 5.61229 38.1172 5.61297L38.1237 5.61459C38.1362 5.61748 38.1485 5.62054 38.1609 5.62421L38.1723 5.62745L38.1758 5.62841C38.1798 5.62964 38.1834 5.63139 38.1873 5.6327C38.1979 5.63629 38.2085 5.64013 38.219 5.64433L38.2224 5.64564L38.2325 5.64967C38.239 5.65247 38.2452 5.65553 38.2515 5.6585C38.2595 5.66218 38.2673 5.66585 38.2751 5.66987L38.285 5.67493L38.2896 5.6774C38.2975 5.68168 38.305 5.68641 38.3127 5.69104L38.318 5.69399L38.3242 5.69752L43.8549 9.19636C43.8577 9.19802 43.8601 9.20012 43.8628 9.20187C43.8734 9.20878 43.8835 9.21604 43.8936 9.22356L43.8978 9.22668L43.8979 9.22676C43.9042 9.23136 43.9104 9.23598 43.9165 9.24088C43.9246 9.24744 43.9324 9.25444 43.9402 9.26144C43.9486 9.26905 43.9572 9.27657 43.9652 9.28453C43.9695 9.28878 43.9735 9.29321 43.9776 9.29763L43.9829 9.30342C43.9916 9.31269 44.0002 9.32188 44.0083 9.33159C44.0135 9.33797 44.0183 9.34462 44.0233 9.35118C44.031 9.36124 44.0388 9.3713 44.0458 9.38171L44.0511 9.38976L44.057 9.39936L44.061 9.40585C44.0668 9.41539 44.0728 9.42474 44.0782 9.43454C44.0824 9.44228 44.0862 9.45023 44.09 9.45818L44.0937 9.46586C44.0977 9.47399 44.1018 9.48195 44.1054 9.49026C44.1077 9.49561 44.1098 9.50101 44.1119 9.50644L44.1177 9.52212L44.1194 9.52682C44.1221 9.53426 44.125 9.54161 44.1274 9.54913C44.1309 9.56012 44.1338 9.57139 44.1368 9.58268L44.1368 9.5829L44.1378 9.58657C44.1399 9.5947 44.1422 9.60284 44.144 9.61106L44.1457 9.61922L44.1477 9.63043L44.1494 9.64103L44.1502 9.64552L44.1509 9.64992L44.1509 9.65008C44.1523 9.65862 44.1537 9.66717 44.1547 9.67579L44.1558 9.68628L44.1566 9.69617L44.1572 9.70562C44.1581 9.71795 44.1589 9.73028 44.159 9.74261L44.1593 9.74766L44.1596 9.75259C44.1596 9.75819 44.1589 9.76361 44.1587 9.76921C44.1584 9.78224 44.1578 9.79527 44.1567 9.80831C44.156 9.81749 44.1549 9.82659 44.1538 9.8356C44.1523 9.84767 44.1505 9.85965 44.1483 9.87172C44.1465 9.88161 44.1444 9.8914 44.1422 9.90111L44.1388 9.91559L44.1341 9.93321C44.1311 9.94406 44.1276 9.95465 44.1241 9.96523C44.1209 9.9745 44.1177 9.98377 44.114 9.99296C44.1101 10.003 44.1059 10.0128 44.1015 10.0227L44.0994 10.0272C44.0958 10.0352 44.0921 10.0433 44.088 10.0512C44.0821 10.0631 44.0756 10.0747 44.0688 10.0861L44.0653 10.0926L44.0653 10.0927C44.0639 10.0952 44.0626 10.0978 44.0611 10.1003L44.0588 10.1035ZM33.5755 18.1952L36.8845 7.58908L28.6121 12.0548L33.5755 18.1952ZM3.61372 1.60807L20.4912 4.65862L15.6691 16.8608L3.61372 1.60807ZM16.7873 17.5642L32.3715 18.7776L21.5824 5.43029L16.7873 17.5642ZM18.375 25.6366L16.7047 18.8737L31.1812 20.0009L18.375 25.6366ZM14.3616 32.3074L17.2449 26.4707L16.0092 21.4677L14.3616 32.3074ZM12.3399 14.749L2.64134 7.60955H6.69711L12.3399 14.749ZM41.2516 9.09655L38.3468 7.25896L37.7735 9.09655H41.2516Z" fill="url(#paint0_linear)"/>
<path fill-rule="evenodd" clip-rule="evenodd" d="M24.6136 30.6822C24.6136 29.2455 25.1475 28.0116 26.2153 26.9804C27.2786 25.9492 28.5564 25.4336 30.0486 25.4336C31.523 25.4336 32.7873 25.9536 33.8417 26.9936C34.9006 28.0336 35.43 29.283 35.43 30.7417C35.43 32.2092 34.8983 33.4542 33.835 34.4766C32.7672 35.5034 31.4783 36.0168 29.9682 36.0168C28.6323 36.0168 27.4327 35.5607 26.3694 34.6484C25.1989 33.6392 24.6136 32.3172 24.6136 30.6822ZM26.1885 30.702C26.1885 31.8302 26.5727 32.7579 27.3411 33.485C28.1051 34.2122 28.9875 34.5757 29.9883 34.5757C31.074 34.5757 31.9898 34.2055 32.736 33.4652C33.4821 32.716 33.8551 31.8038 33.8551 30.7285C33.8551 29.64 33.4865 28.7277 32.7494 27.9918C32.0166 27.2514 31.1097 26.8812 30.0285 26.8812C28.9518 26.8812 28.0426 27.2514 27.3009 27.9918C26.5593 28.7233 26.1885 29.6267 26.1885 30.702ZM37.2224 29.3932H38.737V29.9881C39.2641 29.4725 39.8584 29.2147 40.5196 29.2147C41.2791 29.2147 41.8711 29.4505 42.2955 29.922C42.6619 30.323 42.845 30.9775 42.845 31.8853V35.8317H41.3305V32.2356C41.3305 31.601 41.2411 31.1626 41.0624 30.9202C40.8882 30.6734 40.571 30.55 40.1108 30.55C39.6104 30.55 39.2552 30.713 39.0452 31.0392C38.8397 31.3609 38.737 31.9227 38.737 32.7248V35.8317H37.2224V29.3932ZM46.3731 24.6667V35.8317H44.8653V24.6667H46.3731ZM49.9079 29.3932V35.8317H48.4001V29.3932H49.9079ZM48.1722 26.716C48.1722 26.456 48.2683 26.2312 48.4604 26.0417C48.6525 25.8522 48.8826 25.7575 49.1507 25.7575C49.4232 25.7575 49.6555 25.8522 49.8476 26.0417C50.0397 26.2268 50.1358 26.4538 50.1358 26.7226C50.1358 26.9914 50.0397 27.2206 49.8476 27.4101C49.66 27.5996 49.4299 27.6943 49.1574 27.6943C48.8848 27.6943 48.6525 27.5996 48.4604 27.4101C48.2683 27.2206 48.1722 26.9892 48.1722 26.716ZM51.9349 29.3932H53.4494V29.9881C53.9766 29.4725 54.5709 29.2147 55.2321 29.2147C55.9916 29.2147 56.5836 29.4505 57.008 29.922C57.3744 30.323 57.5575 30.9775 57.5575 31.8853V35.8317H56.043V32.2356C56.043 31.601 55.9536 31.1626 55.7749 30.9202C55.6007 30.6734 55.2835 30.55 54.8233 30.55C54.3229 30.55 53.9677 30.713 53.7577 31.0392C53.5522 31.3609 53.4494 31.9227 53.4494 32.7248V35.8317H51.9349V29.3932ZM65.5221 32.9628H60.8444C60.8846 33.4916 61.0588 33.9125 61.3671 34.2254C61.6754 34.5339 62.0708 34.6881 62.5533 34.6881C62.9286 34.6881 63.2391 34.6 63.4848 34.4237C63.7261 34.2474 64.0008 33.9213 64.3091 33.4453L65.5824 34.146C65.3859 34.4766 65.1781 34.7597 64.9592 34.9955C64.7403 35.2313 64.5057 35.4252 64.2555 35.5772C64.0053 35.7292 63.735 35.8405 63.4446 35.911C63.1542 35.9815 62.8392 36.0168 62.4997 36.0168C61.5257 36.0168 60.7439 35.7083 60.1541 35.0913C59.5644 34.47 59.2695 33.6459 59.2695 32.619C59.2695 31.601 59.5554 30.777 60.1273 30.1468C60.7037 29.5254 61.4676 29.2147 62.4193 29.2147C63.3798 29.2147 64.1393 29.5166 64.6978 30.1203C65.2518 30.7197 65.5288 31.5504 65.5288 32.6124L65.5221 32.9628ZM63.974 31.7465C63.7641 30.9532 63.257 30.5566 62.4528 30.5566C62.2696 30.5566 62.0976 30.5841 61.9368 30.6392C61.7759 30.6943 61.6296 30.7736 61.4978 30.8772C61.366 30.9808 61.2532 31.1053 61.1594 31.2507C61.0655 31.3961 60.9941 31.5614 60.9449 31.7465H63.974ZM67.5759 35.8317V25.6253H69.7472C70.7882 25.6253 71.6102 25.7266 72.2134 25.9293C72.8612 26.1276 73.4487 26.4648 73.9759 26.9407C75.0437 27.9014 75.5776 29.164 75.5776 30.7285C75.5776 32.2973 75.0214 33.5665 73.9089 34.5361C73.3504 35.0208 72.7652 35.3579 72.1531 35.5474C71.5812 35.7369 70.7703 35.8317 69.7204 35.8317H67.5759ZM69.1373 34.384H69.841C70.5424 34.384 71.1255 34.3113 71.5901 34.1659C72.0548 34.0116 72.4747 33.7671 72.85 33.4321C73.6185 32.7402 74.0027 31.839 74.0027 30.7285C74.0027 29.6091 73.623 28.7013 72.8634 28.005C72.1799 27.3836 71.1724 27.0729 69.841 27.0729H69.1373V34.384ZM78.8778 29.3932V35.8317H77.37V29.3932H78.8778ZM77.1421 26.716C77.1421 26.456 77.2382 26.2312 77.4303 26.0417C77.6224 25.8522 77.8525 25.7575 78.1206 25.7575C78.3931 25.7575 78.6254 25.8522 78.8175 26.0417C79.0096 26.2268 79.1057 26.4538 79.1057 26.7226C79.1057 26.9914 79.0096 27.2206 78.8175 27.4101C78.6299 27.5996 78.3998 27.6943 78.1273 27.6943C77.8547 27.6943 77.6224 27.5996 77.4303 27.4101C77.2382 27.2206 77.1421 26.9892 77.1421 26.716ZM81.7157 29.3932L83.4045 33.0091L85.0866 29.3932H86.7821L83.3911 36.2746L80.0269 29.3932H81.7157ZM87.3481 32.5662C87.3481 31.6363 87.6854 30.8453 88.36 30.193C89.0347 29.5408 89.8567 29.2147 90.8262 29.2147C91.8002 29.2147 92.6267 29.543 93.3058 30.1996C93.976 30.8563 94.3111 31.6627 94.3111 32.619C94.3111 33.5842 93.9738 34.3928 93.2991 35.0451C92.62 35.6929 91.7868 36.0168 90.7994 36.0168C89.821 36.0168 89.0012 35.6863 88.3399 35.0252C87.6787 34.373 87.3481 33.5533 87.3481 32.5662ZM88.8895 32.5926C88.8895 33.236 89.0637 33.745 89.4122 34.1196C89.7696 34.4986 90.241 34.6881 90.8262 34.6881C91.416 34.6881 91.8873 34.5008 92.2403 34.1262C92.5932 33.7516 92.7697 33.2514 92.7697 32.6257C92.7697 31.9999 92.5932 31.4997 92.2403 31.1251C91.8829 30.7461 91.4115 30.5566 90.8262 30.5566C90.2499 30.5566 89.783 30.7461 89.4256 31.1251C89.0682 31.5041 88.8895 31.9933 88.8895 32.5926ZM96.023 29.3932H97.5309V29.9683C97.8079 29.6818 98.0536 29.4857 98.2681 29.38C98.487 29.2698 98.7461 29.2147 99.0455 29.2147C99.4431 29.2147 99.8586 29.3425 100.292 29.5981L99.6017 30.9598C99.3158 30.7571 99.0365 30.6558 98.764 30.6558C97.9419 30.6558 97.5309 31.2683 97.5309 32.4934V35.8317H96.023V29.3932ZM106.233 29.6708V31.6473C105.889 31.2331 105.58 30.9488 105.308 30.7946C105.04 30.6359 104.725 30.5566 104.363 30.5566C103.795 30.5566 103.324 30.7527 102.949 31.1449C102.574 31.5371 102.386 32.0285 102.386 32.619C102.386 33.2228 102.567 33.7186 102.929 34.1064C103.295 34.4942 103.762 34.6881 104.329 34.6881C104.691 34.6881 105.011 34.611 105.288 34.4567C105.556 34.3069 105.871 34.016 106.233 33.5842V35.5474C105.621 35.8603 105.008 36.0168 104.396 36.0168C103.387 36.0168 102.542 35.6951 101.863 35.0517C101.184 34.4038 100.845 33.5996 100.845 32.6389C100.845 31.6782 101.189 30.8673 101.877 30.2063C102.565 29.5452 103.409 29.2147 104.41 29.2147C105.053 29.2147 105.661 29.3667 106.233 29.6708ZM109.318 29.3932V35.8317H107.811V29.3932H109.318ZM107.583 26.716C107.583 26.456 107.679 26.2312 107.871 26.0417C108.063 25.8522 108.293 25.7575 108.561 25.7575C108.834 25.7575 109.066 25.8522 109.258 26.0417C109.45 26.2268 109.546 26.4538 109.546 26.7226C109.546 26.9914 109.45 27.2206 109.258 27.4101C109.07 27.5996 108.84 27.6943 108.568 27.6943C108.295 27.6943 108.063 27.5996 107.871 27.4101C107.679 27.2206 107.583 26.9892 107.583 26.716ZM111.037 32.5662C111.037 31.6363 111.374 30.8453 112.049 30.193C112.724 29.5408 113.546 29.2147 114.515 29.2147C115.489 29.2147 116.316 29.543 116.995 30.1996C117.665 30.8563 118 31.6627 118 32.619C118 33.5842 117.663 34.3928 116.988 35.0451C116.309 35.6929 115.476 36.0168 114.488 36.0168C113.51 36.0168 112.69 35.6863 112.029 35.0252C111.368 34.373 111.037 33.5533 111.037 32.5662ZM112.578 32.5926C112.578 33.236 112.753 33.745 113.101 34.1196C113.459 34.4986 113.93 34.6881 114.515 34.6881C115.105 34.6881 115.576 34.5008 115.929 34.1262C116.282 33.7516 116.459 33.2514 116.459 32.6257C116.459 31.9999 116.282 31.4997 115.929 31.1251C115.572 30.7461 115.101 30.5566 114.515 30.5566C113.939 30.5566 113.472 30.7461 113.115 31.1251C112.757 31.5041 112.578 31.9933 112.578 32.5926Z" fill="#575C6B"/>
<defs>
<linearGradient id="paint0_linear" x1="6.10352e-05" y1="0" x2="6.10352e-05" y2="37" gradientUnits="userSpaceOnUse">
<stop stop-color="#FAD961"/>
<stop offset="1" stop-color="#F76B1C"/>
</linearGradient>
</defs>
</svg>
