<svg width="65" height="20" viewBox="0 0 65 20" fill="none" xmlns="http://www.w3.org/2000/svg">
<path fill-rule="evenodd" clip-rule="evenodd" d="M24.3951 0.327148H11.8358V12.3587C11.9004 12.4866 11.965 12.6067 12.0376 12.7268C12.8914 11.1822 13.7213 9.62473 14.5269 8.05502C15.4053 6.33638 16.2647 4.60833 17.1051 2.87118H17.808C17.9897 5.03453 18.208 7.19471 18.4629 9.35081C18.7072 11.428 18.9929 13.5003 19.3197 15.5664C19.1337 15.5181 18.9561 15.4866 18.7781 15.4627C18.6081 15.4305 18.4304 15.4227 18.2608 15.4227C18.0982 15.4207 17.9359 15.4341 17.7759 15.4627C17.5858 15.4885 17.397 15.5231 17.2101 15.5664C17.1535 14.0465 17.0484 12.5267 16.9029 10.9829C16.7657 9.43872 16.5718 7.87064 16.3455 6.28682L13.7106 11.4067C13.3209 12.1607 12.949 12.9236 12.5954 13.6948C12.2965 14.3663 12.0376 14.9821 11.8358 15.5581V19.8861H24.3951V15.7904C23.0372 15.6703 21.9545 15.2058 21.122 14.3982C20.1602 13.4462 19.6753 12.1582 19.6753 10.5026C19.6753 8.8784 20.1843 7.59082 21.2028 6.64669C22.0191 5.8948 23.086 5.43881 24.3951 5.2948V0.327148ZM24.3951 0.327148H28.8968V5.9509C28.3228 5.72684 27.7733 5.55101 27.2321 5.43881C26.6272 5.30534 26.0092 5.23834 25.3894 5.23904C25.0571 5.23685 24.725 5.25559 24.3951 5.29514V0.327148ZM34.1744 0.327148H28.8971V5.95124C28.9697 5.98306 29.0423 6.01487 29.1231 6.04702C29.0319 6.22146 28.9563 6.40345 28.8971 6.59093V6.59118C28.8877 6.61428 28.8811 6.63739 28.8741 6.66201L28.8741 6.66204C28.8689 6.68001 28.8636 6.69879 28.8567 6.71897C28.7921 6.96698 28.7354 7.23893 28.695 7.54304H28.5253C28.1859 6.98306 27.7494 6.57496 27.2324 6.30301C26.7151 6.03105 26.1009 5.89491 25.3897 5.89491C25.0341 5.89491 24.7027 5.93493 24.3954 5.9989V14.9504C24.7269 15.0304 25.0745 15.0708 25.454 15.0708C26.0844 15.0708 26.6743 14.9425 27.2241 14.6945C27.7816 14.4465 28.3069 14.0623 28.808 13.5427L28.8972 13.5828V13.5823L28.9859 13.6223C28.9455 13.7742 28.9213 13.9186 28.8971 14.0701V15.0864C29.7492 13.2395 30.5869 11.3862 31.4103 9.52663C32.2892 7.55003 33.1917 5.44809 34.1413 3.2367L34.142 3.23514L34.1747 3.15886V3.1579C34.2154 3.06232 34.2557 2.96641 34.2954 2.87049L34.3354 2.87776C34.4091 2.89125 34.478 2.90384 34.5466 2.91052L34.5553 2.91145C34.6246 2.91902 34.694 2.92659 34.7485 2.92659C34.8241 2.92515 34.8995 2.91979 34.9745 2.91052C35.0453 2.90195 35.1154 2.88857 35.1843 2.87049C36.0333 5.00692 36.9037 7.13497 37.7953 9.25434C38.6924 11.3674 39.6112 13.4714 40.5514 15.566C40.3091 15.5339 40.0911 15.5178 39.8806 15.5024C39.687 15.4867 39.4928 15.4787 39.2986 15.4784C39.113 15.4784 38.9267 15.4863 38.7249 15.5024L38.7031 15.5042L38.703 15.5042C38.5229 15.5191 38.3283 15.5351 38.1187 15.566C37.8523 14.6862 37.5775 13.8625 37.3028 13.0863C37.0201 12.3022 36.7363 11.5504 36.4374 10.8464C36.0908 10.8224 35.7348 10.8067 35.3792 10.7985C35.0232 10.7906 34.6597 10.7827 34.2957 10.7827H34.1748V19.8871H43.6306V10.5672H43.6307V19.8871H50.2979V15.567H50.2982V19.8871H56.9735V15.567C56.5294 15.567 56.0846 15.567 55.6236 15.5749C55.1612 15.5823 54.6849 15.5969 54.194 15.6119L54.1939 15.6119L54.0967 15.6149C54.1634 14.8267 54.2145 14.0373 54.2498 13.2471C54.2823 12.4148 54.2985 11.5028 54.2985 10.519C54.2985 9.42299 54.282 8.47064 54.2498 7.64692C54.2177 6.8232 54.1689 6.07918 54.0967 5.407L55.6001 5.43094C56.0602 5.43915 56.5211 5.44702 56.9734 5.44702V0.327148H50.2983H50.2982V5.44702H50.3788C50.6244 5.44702 50.8659 5.445 51.1042 5.44301L51.1045 5.44301H51.1045H51.1045H51.1046H51.1046H51.1046H51.1047H51.1047H51.1047H51.1048C51.3369 5.44107 51.566 5.43915 51.793 5.43915C52.246 5.43094 52.6901 5.41521 53.1187 5.39913C53.1033 5.48278 53.095 5.56612 53.0874 5.64275L53.0862 5.65535C53.0782 5.74326 53.0782 5.82331 53.0782 5.91122C53.0782 5.99127 53.0782 6.07952 53.0862 6.16744L53.0892 6.19954C53.0965 6.27824 53.1044 6.36274 53.1187 6.44725C52.7267 6.36218 52.33 6.30072 51.9305 6.26322C51.5099 6.21498 51.0579 6.19891 50.5644 6.19891H50.2979V6.19896H49.1347V9.82293H50.2983V9.82287H50.7023C51.0337 9.82287 51.3727 9.81466 51.7283 9.79072C52.0595 9.77606 52.4119 9.74035 52.7787 9.70319L52.8602 9.69494C52.8439 9.79893 52.836 9.87897 52.836 9.94294C52.836 9.97984 52.8339 10.0147 52.8318 10.0485L52.8318 10.0486V10.0487V10.0487V10.0488V10.0488V10.0488V10.0489V10.0489C52.8299 10.0808 52.828 10.1117 52.828 10.1427C52.828 10.2385 52.836 10.3986 52.8522 10.6148V10.6948C52.7364 10.6856 52.624 10.6763 52.5153 10.6674L52.5145 10.6673C52.1525 10.6376 51.8304 10.6111 51.5507 10.5987C51.1871 10.5744 50.8879 10.5665 50.6618 10.5665H50.2983V10.5664H49.1347V12.1506C49.1347 12.4611 49.1414 12.8262 49.149 13.2336L49.1509 13.3345C49.1577 13.7322 49.1706 14.1482 49.1844 14.5917L49.1845 14.594L49.1845 14.595L49.1913 14.8144H50.2979V14.8145H50.6131C51.0337 14.8145 51.4536 14.7902 51.8821 14.7502C52.3107 14.7101 52.7385 14.6458 53.1754 14.5665C53.1591 14.6308 53.1512 14.6941 53.1512 14.7662C53.1432 14.8463 53.1432 14.9499 53.1432 15.0943C53.1432 15.2458 53.1432 15.358 53.1512 15.4223C53.1551 15.4569 53.1572 15.4895 53.1592 15.5203C53.1613 15.5538 53.1633 15.585 53.1674 15.6142C52.7389 15.5982 52.2941 15.5821 51.8338 15.5742C51.3807 15.5664 50.9041 15.5664 50.4196 15.5664H50.2979V15.567C49.8612 15.567 49.4092 15.567 48.9562 15.5749C48.4718 15.5825 47.9796 15.5978 47.4794 15.6134L47.4287 15.6149C47.4969 14.8269 47.5456 14.0374 47.5745 13.2471C47.607 12.4148 47.6232 11.5028 47.6232 10.519C47.6256 9.56142 47.6094 8.60388 47.5745 7.64692C47.5503 6.8232 47.5016 6.07918 47.4287 5.407L48.9244 5.43094C49.393 5.43915 49.8539 5.44702 50.2979 5.44702V0.327148H43.6307V5.44702H43.7512C44.0021 5.44702 44.2466 5.44499 44.4868 5.44299C44.7191 5.44105 44.9474 5.43915 45.174 5.43915L45.2059 5.43857C45.6473 5.43057 46.0812 5.4227 46.499 5.407C46.4828 5.49525 46.4745 5.58317 46.4672 5.66321C46.4593 5.74326 46.4593 5.83151 46.4593 5.91943C46.4593 5.99126 46.4593 6.07952 46.4748 6.16744L46.499 6.44725C46.0712 6.36721 45.6423 6.30324 45.2144 6.26322C44.7859 6.21498 44.3653 6.19891 43.9454 6.19891H43.6302V6.19896H42.4833L42.4814 6.28625C42.4741 6.62278 42.4671 6.94599 42.4671 7.26282V9.82259H43.6302V9.82287H44.0339C44.3764 9.82374 44.7189 9.81302 45.0606 9.79072C45.4004 9.77603 45.754 9.74016 46.1215 9.7029L46.1215 9.70289L46.2001 9.69494C46.1845 9.79893 46.1766 9.87897 46.1766 9.94294C46.1686 10.0148 46.1686 10.0787 46.1686 10.1427C46.1686 10.2385 46.1766 10.3986 46.1921 10.6148V10.6948C46.0619 10.6846 45.9369 10.6743 45.8168 10.6645C45.4678 10.6359 45.1601 10.6107 44.8834 10.5987C44.5194 10.5744 44.2205 10.5665 43.9862 10.5665H43.6306V10.5672H42.467V12.1514C42.467 12.8793 42.475 13.519 42.4912 14.0951C42.4976 14.6022 42.5191 15.109 42.5555 15.6149C42.4345 15.591 42.297 15.5667 42.1518 15.5588C42.006 15.5427 41.8446 15.5427 41.6583 15.5427C41.481 15.5427 41.3107 15.5427 41.1738 15.5588C41.0312 15.5665 40.8968 15.5899 40.7623 15.6133L40.7622 15.6134L40.7532 15.6149C40.8241 14.827 40.8754 14.0375 40.907 13.2471C40.9395 12.4148 40.9557 11.5028 40.9557 10.519C40.9581 9.56142 40.9419 8.60388 40.907 7.64692C40.8828 6.8232 40.8261 6.07918 40.7532 5.407L42.2887 5.43094C42.7416 5.43915 43.1935 5.44701 43.6302 5.44702V0.327148H34.1748H34.1747V3.1579L34.1744 3.15852V0.327148ZM43.6302 9.82259V6.19896H43.6307V9.82259H43.6302ZM50.2979 14.8144V10.5665H50.2983V14.8144H50.2979ZM50.2983 9.82287V6.19896H50.2979V9.82287H50.2983ZM28.8972 13.5823V6.59104L28.8971 6.59118V13.5823L28.8972 13.5823ZM57.0463 5.44702L56.9738 5.44702V0.327148H64.7569V19.8864H56.9737V15.5664H57.0954C57.5799 15.5664 58.0492 15.5664 58.5096 15.5742C58.9626 15.5821 59.4067 15.5982 59.8353 15.6142C59.8353 15.5628 59.8286 15.5051 59.8211 15.4403L59.819 15.4223C59.819 15.397 59.8178 15.3641 59.8163 15.3244C59.814 15.2634 59.8111 15.186 59.8111 15.0943C59.8111 15.0115 59.8137 14.9422 59.8159 14.883C59.8176 14.8389 59.819 14.8004 59.819 14.7662C59.819 14.6941 59.827 14.6308 59.8432 14.5665C59.4064 14.6458 58.9785 14.7101 58.55 14.7502C58.1215 14.7902 57.7016 14.8145 57.281 14.8145H56.9737L56.9737 14.8144H55.8668C55.8513 14.4804 55.8424 14.1622 55.8338 13.8561L55.8338 13.8542C55.8289 13.6772 55.824 13.5042 55.8181 13.3345L55.8162 13.2336C55.8086 12.8262 55.8018 12.4611 55.8018 12.1506V10.5664H56.9737L56.9737 10.5666H57.3293C57.5554 10.5666 57.8547 10.5744 58.2265 10.5987C58.4916 10.6107 58.8019 10.636 59.1536 10.6647L59.1537 10.6647L59.1537 10.6647L59.154 10.6647L59.1541 10.6647L59.1544 10.6647L59.1546 10.6647C59.2743 10.6745 59.3988 10.6847 59.528 10.6948V10.6148C59.5118 10.3986 59.5038 10.2385 59.5038 10.1427V9.94294L59.5096 9.89526C59.5161 9.84017 59.5239 9.77458 59.5363 9.69494L59.3853 9.70998C59.0387 9.74464 58.7155 9.77696 58.4052 9.79072C58.0413 9.81466 57.7019 9.82287 57.3705 9.82287H56.9737L56.9737 9.82293H55.8018V6.19896H56.9737L56.9737 6.19891H57.2402C57.7254 6.19891 58.1857 6.21498 58.6063 6.26322C59.003 6.3007 59.3971 6.36216 59.7862 6.44725C59.7819 6.39483 59.7751 6.3424 59.7684 6.29136L59.7684 6.29122L59.7684 6.2911L59.7684 6.29101L59.7684 6.29093L59.7684 6.29086L59.7683 6.29061C59.7628 6.24833 59.7575 6.20701 59.7537 6.16744C59.7458 6.07952 59.7458 5.99127 59.7458 5.91122C59.7458 5.82331 59.7458 5.74326 59.7537 5.65535C59.7575 5.61749 59.7631 5.57787 59.7688 5.53728C59.7752 5.49206 59.7818 5.44564 59.7862 5.39913C59.3577 5.41521 58.9136 5.43094 58.4605 5.43915C58.2334 5.43915 58.0041 5.44107 57.7719 5.44301H57.7719H57.7719H57.7718H57.7718H57.7718C57.5334 5.445 57.2919 5.44702 57.0463 5.44702ZM34.1748 9.95074H34.2802C34.5791 9.95074 34.878 9.94287 35.169 9.93466C35.468 9.92679 35.751 9.91072 36.0175 9.89498L34.1989 5.3669L34.1748 5.42266V5.42287L32.3318 9.89466L32.3734 9.89664L32.3736 9.89664C32.6911 9.91173 33.0082 9.9268 33.3181 9.93434C33.4656 9.9385 33.611 9.94055 33.7554 9.94259L33.7556 9.94259C33.8959 9.94457 34.0353 9.94654 34.1748 9.95041V9.95074ZM34.1748 9.95041L34.1748 9.95042V5.42268L34.1748 5.42287V9.95041ZM34.1747 19.8861V10.7824C33.8354 10.7824 33.4877 10.7903 33.14 10.7982C32.7364 10.8064 32.332 10.8221 31.9035 10.8461L31.176 12.7983C31.0091 13.2363 30.8555 13.6792 30.7153 14.1262C30.5729 14.604 30.4382 15.084 30.3113 15.566C30.1755 15.5341 30.0378 15.5102 29.899 15.4945L29.8644 15.4925C29.7399 15.4853 29.621 15.4785 29.495 15.4785C29.3737 15.4785 29.2445 15.4863 29.1149 15.4945C29.0759 15.4988 29.0368 15.5052 28.9978 15.5116C28.9641 15.5171 28.9304 15.5226 28.8968 15.5267V15.527C28.8354 15.533 28.7742 15.5454 28.7081 15.5587L28.6705 15.5663C28.7457 15.418 28.8138 15.2688 28.8816 15.1201L28.8968 15.0867V14.0704C28.8904 14.1158 28.8837 14.1559 28.8772 14.1951L28.8727 14.2226C28.8481 14.4303 28.8319 14.6383 28.8239 14.8627C28.2178 15.1828 27.6199 15.4305 27.0137 15.5903C26.3996 15.7428 25.7771 15.8222 25.1305 15.8222C24.872 15.8222 24.6294 15.8147 24.3951 15.7907V19.8864H28.8968V19.8861H34.1747ZM28.8968 19.8861H28.8968V15.527L28.8968 15.527V19.8861ZM24.395 5.99892C23.6271 6.15867 22.9971 6.52674 22.496 7.1028C21.8007 7.91079 21.4533 9.02288 21.4533 10.4387C21.4533 11.8546 21.8169 12.9828 22.5444 13.8147C23.0455 14.3908 23.66 14.7749 24.395 14.9504V5.99892ZM11.8357 0.32787H0.100281V19.8872H11.835V15.5592C11.835 15.5592 11.8271 15.5592 11.8271 15.5671C11.8023 15.5515 11.7749 15.5406 11.7462 15.5349C11.7329 15.5349 11.7182 15.5337 11.7009 15.5322C11.6765 15.5302 11.6469 15.5277 11.609 15.5277C11.5767 15.5277 11.547 15.5301 11.5216 15.5321C11.5024 15.5336 11.4856 15.5349 11.4718 15.5349L11.467 15.5361C11.4364 15.5439 11.4055 15.5518 11.3747 15.5671C10.6457 14.0007 9.88594 12.4485 9.09581 10.9114C8.31025 9.39829 7.50193 7.89686 6.67111 6.40761L6.13785 11.4635C6.06493 12.1514 6.0086 12.8315 5.96816 13.5033C5.92773 14.1916 5.89524 14.8716 5.879 15.5671C5.74585 15.5376 5.61909 15.5216 5.5054 15.5073C5.49516 15.506 5.48502 15.5047 5.475 15.5034C5.34574 15.4874 5.22444 15.4795 5.10314 15.4795C5.00113 15.4795 4.89912 15.4862 4.79101 15.4933C4.77935 15.494 4.76762 15.4948 4.75581 15.4956C4.63485 15.511 4.49731 15.5349 4.35181 15.5671C4.78 13.3829 5.15187 11.2395 5.45081 9.11139C5.75243 7.03862 5.99502 4.95785 6.17829 2.87156H6.87328C7.83508 4.77556 8.73224 6.55128 9.59693 8.18333C10.325 9.58485 11.0713 10.977 11.8357 12.3594V0.32787Z" fill="#CC2229"/>
</svg>
