<svg width="42" height="28" viewBox="0 0 42 28" fill="none" xmlns="http://www.w3.org/2000/svg">
<path d="M5.91794 12.729C5.61936 12.7446 5.38102 12.912 5.33215 13.1389H6.56264C6.52247 12.9083 6.22121 12.7151 5.91794 12.729Z" fill="black"/>
<path d="M5.01483 12.6286C5.16405 12.5042 5.34238 12.429 5.5386 12.3948C6.00343 12.3129 6.47497 12.5176 6.7294 12.9138C6.83311 13.0761 6.89802 13.2496 6.91145 13.441H7.38299C7.38224 13.4276 7.3815 13.4119 7.38 13.3948C7.36359 13.1737 7.30315 12.9644 7.19571 12.7738C7.00471 12.4335 6.73238 12.1833 6.36753 12.0314C6.10639 11.9234 5.83779 11.8855 5.56173 11.919C5.04318 11.9808 4.64103 12.2384 4.35751 12.6785C4.13815 13.018 4.05832 13.3926 4.12398 13.788C4.22619 14.4097 4.57537 14.8535 5.16704 15.0754C5.78482 15.3085 6.35112 15.1856 6.854 14.7612C6.89503 14.7262 6.89652 14.6837 6.85698 14.651C6.77416 14.5788 6.69657 14.5028 6.62345 14.4216C6.58689 14.3829 6.56152 14.3881 6.5272 14.4209C6.43394 14.5117 6.32351 14.5743 6.20413 14.6257C5.78557 14.8074 5.25881 14.7143 4.93575 14.3941C4.67162 14.1327 4.55001 13.8177 4.57985 13.4447C4.60671 13.1081 4.76116 12.8386 5.01483 12.6286Z" fill="black"/>
<path d="M8.20032 13.488C8.19599 13.4077 8.19094 13.3252 8.17867 13.2456C8.08487 12.664 7.82798 12.1679 7.41451 11.7694C6.98661 11.3582 6.46273 11.1293 5.85732 11.0903C5.60116 11.0737 5.33633 11.106 5.07512 11.1863C4.38312 11.398 3.86429 11.846 3.53381 12.5184C3.37722 12.8381 3.29207 13.1848 3.28125 13.5496H3.67019C3.67163 13.4858 3.67524 13.422 3.68462 13.359C3.79935 12.6317 4.16592 12.0891 4.77566 11.7462C5.07512 11.5773 5.39406 11.4918 5.72455 11.4918C5.8833 11.4918 6.04638 11.5113 6.2109 11.5503C6.59118 11.6404 6.92599 11.834 7.20597 12.1244C7.45492 12.3826 7.63243 12.6888 7.73201 13.034C7.78108 13.2006 7.80994 13.3747 7.81788 13.5496H8.20321C8.20248 13.5301 8.20104 13.5091 8.20032 13.488Z" fill="black"/>
<path d="M17.8179 11.9475C17.3827 11.8706 16.9418 11.9296 16.5038 11.9172C16.4136 11.9141 16.4072 11.9864 16.4072 12.0594C16.4072 12.2778 16.4072 12.4954 16.4072 12.7145C16.4072 12.9438 16.4086 13.173 16.4065 13.4031C16.405 13.5025 16.4373 13.5507 16.5353 13.5492C16.9476 13.5328 17.3598 13.5764 17.7713 13.5173C18.175 13.4598 18.447 13.1614 18.457 12.7518C18.4663 12.3275 18.2337 12.0206 17.8179 11.9475Z" fill="black"/>
<path fill-rule="evenodd" clip-rule="evenodd" d="M1.07703 0H40.7596C41.3551 0 41.8366 0.481963 41.8366 1.07646V26.0223C41.8366 26.6168 41.3551 27.0987 40.7596 27.0987H1.07703C0.481477 27.0987 0 26.616 0 26.0215V1.07646C0 0.481963 0.481477 0 1.07703 0ZM8.62805 16.7608C8.87323 16.7608 9.07175 16.5624 9.07175 16.3166V10.7826C9.07175 10.5375 8.87323 10.3391 8.62805 10.3391H3.09107C2.84589 10.3391 2.64737 10.5375 2.64737 10.7826V16.3166C2.64737 16.5624 2.84589 16.7608 3.09107 16.7608H8.62805ZM14.4636 11.7511C14.4665 11.8718 14.4287 11.9147 14.305 11.9125C14.1151 11.9099 13.9249 11.9106 13.7347 11.9112H13.7346H13.7346H13.7346H13.7346H13.7345C13.4863 11.912 13.238 11.9128 12.9902 11.9066C12.8191 11.9021 12.7799 11.9613 12.7806 12.1235C12.7839 13.1224 12.7835 14.1205 12.7831 15.1184L12.7828 16.1161C12.7828 16.2322 12.7828 16.2898 12.7541 16.3185C12.7258 16.3468 12.6697 16.3471 12.5584 16.3479C12.461 16.3484 12.3636 16.3475 12.2664 16.3465C12.0841 16.3448 11.902 16.3431 11.7199 16.3508C11.5495 16.359 11.5088 16.2923 11.5088 16.131C11.5128 15.1076 11.5124 14.0843 11.512 13.0603L11.5117 12.1383C11.5117 11.9103 11.511 11.9103 11.2873 11.9103C11.1573 11.9103 11.0271 11.9098 10.897 11.9093H10.897H10.897H10.897H10.8969C10.5994 11.9082 10.3019 11.9071 10.0051 11.9117C9.85694 11.9147 9.79916 11.8666 9.80435 11.7141C9.81324 11.4461 9.81398 11.1766 9.80435 10.9093C9.79842 10.7539 9.86213 10.7124 10.0073 10.7131C10.5299 10.7169 11.0525 10.7164 11.5748 10.7158H11.5749H11.5751H11.5752C11.7649 10.7156 11.9547 10.7154 12.1443 10.7154C12.3356 10.7154 12.527 10.7157 12.7183 10.716C13.2284 10.7169 13.7386 10.7178 14.2487 10.7124C14.4147 10.7109 14.471 10.762 14.4636 10.9286C14.451 11.2032 14.4547 11.4772 14.4636 11.7511ZM19.2515 16.3448C19.4058 16.3451 19.5602 16.3454 19.7147 16.3442C19.7263 16.3446 19.7388 16.3463 19.7516 16.3479L19.7516 16.3479C19.7965 16.3537 19.8444 16.3599 19.868 16.319C19.896 16.2705 19.8628 16.2316 19.8312 16.1947C19.8218 16.1837 19.8125 16.1729 19.8051 16.162C19.4236 15.6009 19.0414 15.0397 18.6532 14.4829C18.5732 14.3674 18.5917 14.3267 18.7169 14.2734C19.031 14.1357 19.2777 13.9166 19.4651 13.6271C19.7117 13.2495 19.7443 12.8275 19.7214 12.3952C19.6902 11.8199 19.4391 11.3683 18.9503 11.0566C18.5066 10.7746 18.0029 10.7279 17.4977 10.7198C16.9796 10.7115 16.4616 10.7134 15.9438 10.7152H15.9437H15.9435H15.9434H15.9432C15.7216 10.716 15.5 10.7168 15.2784 10.7168C15.0377 10.7168 15.037 10.7183 15.037 10.9522V13.5323V16.1117C15.037 16.3456 15.0377 16.3471 15.2777 16.3471C15.3728 16.3474 15.4679 16.3468 15.5629 16.3462C15.753 16.3451 15.9429 16.3439 16.1325 16.3493C16.2821 16.3538 16.3347 16.302 16.3325 16.1502C16.3285 15.8995 16.329 15.6487 16.3296 15.3978V15.3975C16.33 15.1824 16.3304 14.9673 16.3281 14.7524C16.3258 14.6206 16.3651 14.5629 16.5051 14.5688C16.6962 14.5784 16.8888 14.577 17.0799 14.5688C17.1977 14.5644 17.271 14.6103 17.3355 14.708C17.4967 14.9507 17.6596 15.1923 17.8225 15.4338C17.9964 15.6916 18.1704 15.9495 18.3421 16.2087C18.4058 16.3057 18.4777 16.3493 18.5962 16.3479C18.8146 16.344 19.033 16.3444 19.2515 16.3448ZM25.4345 14.1599C25.4145 14.8587 25.1886 15.4954 24.6086 15.9485C24.2671 16.2136 23.8708 16.3535 23.4442 16.3986C22.9101 16.4542 22.3827 16.4401 21.8753 16.2387C21.1123 15.9352 20.7338 15.3377 20.5961 14.5574C20.5649 14.3849 20.5561 14.2102 20.5568 14.0355C20.5578 13.7142 20.5575 13.3929 20.5571 13.0716C20.557 12.9109 20.5568 12.7502 20.5568 12.5896C20.5568 12.4301 20.5572 12.2706 20.5575 12.111C20.5584 11.7121 20.5593 11.313 20.5546 10.9142C20.5523 10.7639 20.5998 10.7099 20.7509 10.7143C21.0412 10.7224 21.3323 10.7232 21.6212 10.7136C21.7842 10.7076 21.8264 10.7735 21.8249 10.926C21.8205 11.9329 21.8197 12.9413 21.8249 13.9481C21.8249 14.3064 21.8901 14.6507 22.1546 14.918C22.5264 15.2926 22.979 15.32 23.4486 15.1726C23.879 15.0372 24.0701 14.6959 24.1412 14.2746C24.1686 14.1117 24.176 13.9496 24.176 13.7845C24.1738 13.0743 24.1741 12.3637 24.1744 11.6533L24.1745 10.9431C24.1745 10.718 24.1753 10.7173 24.4056 10.7165C24.4908 10.7165 24.576 10.7169 24.6613 10.7173H24.6614H24.6616H24.6617H24.6618C24.8612 10.7183 25.0608 10.7192 25.2605 10.715C25.3879 10.7128 25.4471 10.7484 25.4471 10.8905C25.445 11.2786 25.4463 11.6669 25.4476 12.0553V12.0554V12.0555V12.0556C25.4499 12.7571 25.4522 13.459 25.4345 14.1599ZM28.7137 16.4122C29.0493 16.387 29.3774 16.3234 29.6767 16.1612C30.27 15.8392 30.5456 15.3394 30.5478 14.6598C30.55 14.0394 30.287 13.6041 29.7485 13.3168C29.4263 13.1451 29.0811 13.0444 28.7315 12.9496C28.6855 12.9372 28.6394 12.9251 28.5933 12.9129C28.343 12.8472 28.0922 12.7813 27.8589 12.6631C27.69 12.578 27.5789 12.4477 27.5856 12.2507C27.5937 12.0397 27.7197 11.9117 27.91 11.8406C28.1115 11.7666 28.3189 11.7621 28.5263 11.7984C28.9211 11.868 29.2782 12.0316 29.6056 12.2589C29.6996 12.324 29.7522 12.3144 29.8152 12.2189L29.8408 12.1803C29.987 11.96 30.1327 11.7403 30.2937 11.5319C30.3967 11.4001 30.3648 11.3357 30.2411 11.2505C29.5389 10.7671 28.7678 10.5761 27.9211 10.676C27.173 10.7641 26.4115 11.2446 26.33 12.1797C26.2812 12.7379 26.3997 13.2376 26.8886 13.5856C27.1891 13.7992 27.535 13.9044 27.8801 14.0094L27.896 14.0142C28.0076 14.0481 28.1208 14.0774 28.234 14.1068C28.4921 14.1736 28.7503 14.2405 28.9908 14.3615C29.2204 14.4777 29.2915 14.5932 29.2745 14.8271C29.2582 15.0426 29.1196 15.1529 28.93 15.2203C28.6915 15.3054 28.4456 15.3017 28.2004 15.2654C27.7397 15.1943 27.3367 14.9893 26.9789 14.6983C26.8782 14.6161 26.813 14.6272 26.736 14.725C26.5612 14.9426 26.3819 15.1573 26.1982 15.3676C26.1019 15.4771 26.1219 15.5438 26.2323 15.6319C26.8863 16.1553 27.6367 16.3996 28.4678 16.4122C28.4952 16.4122 28.5226 16.4128 28.5501 16.4133L28.5502 16.4134H28.5503H28.5503C28.6052 16.4145 28.6599 16.4157 28.7137 16.4122ZM33.6581 12.1197C33.6632 13.1331 33.6626 14.1471 33.6621 15.1611C33.6619 15.473 33.6618 15.7849 33.6618 16.0968C33.6618 16.2218 33.6618 16.2847 33.6303 16.3164C33.5984 16.3485 33.5341 16.3485 33.4047 16.3485C33.3181 16.3487 33.2311 16.348 33.1441 16.3473C32.9628 16.3459 32.781 16.3444 32.6003 16.3515C32.444 16.3566 32.3922 16.3041 32.3929 16.1449C32.3972 15.0317 32.3964 13.9191 32.3956 12.8057V12.8053L32.3951 12.136C32.3951 12.0238 32.3951 11.9675 32.367 11.9393C32.3387 11.9109 32.2818 11.9109 32.1677 11.9109H30.9018C30.7003 11.9101 30.6922 11.902 30.6907 11.694C30.6901 11.5966 30.6909 11.4991 30.6917 11.4016V11.4014C30.693 11.2362 30.6943 11.0709 30.6892 10.9062C30.6848 10.7626 30.7366 10.7145 30.8796 10.7152C31.3886 10.7184 31.8976 10.7178 32.4063 10.7172C32.6098 10.717 32.8132 10.7167 33.0166 10.7167C33.2129 10.7167 33.4092 10.717 33.6055 10.7173C34.1158 10.718 34.6262 10.7188 35.1366 10.7145C35.2899 10.713 35.3536 10.756 35.3477 10.9188C35.3351 11.192 35.3388 11.4659 35.3462 11.7399C35.3492 11.8687 35.2988 11.9138 35.1729 11.9124C34.9926 11.9105 34.8124 11.9112 34.6321 11.912C34.3798 11.913 34.1274 11.914 33.8751 11.9079C33.7107 11.9035 33.6573 11.9509 33.6581 12.1197ZM38.0492 14.638C38.3566 14.6369 38.6642 14.6359 38.9714 14.6417C39.1277 14.6432 39.1862 14.5818 39.1884 14.4292C39.1922 14.0835 39.164 13.7407 39.0596 13.4098C38.807 12.605 38.2848 12.0935 37.4359 11.978C36.5877 11.8632 35.8766 12.126 35.3663 12.8375C35.0115 13.3328 34.9085 13.8999 34.9707 14.4937C35.0448 15.2066 35.3863 15.767 36.0122 16.1306C36.5092 16.42 37.0537 16.4874 37.6144 16.4052C38.0996 16.3327 38.5196 16.1202 38.861 15.7626C38.9536 15.6649 38.9729 15.5894 38.8551 15.4939C38.6847 15.3569 38.5196 15.2133 38.3625 15.0608C38.2811 14.9815 38.2255 14.9786 38.1448 15.0563C37.9485 15.2414 37.7129 15.3488 37.4477 15.3991C36.9314 15.4983 36.4418 15.2525 36.2714 14.8113C36.2203 14.6787 36.25 14.6351 36.3914 14.6373C36.6942 14.6414 36.9969 14.6405 37.3001 14.6396C37.4302 14.6392 37.5604 14.6388 37.6907 14.6388C37.8101 14.6388 37.9296 14.6384 38.0492 14.638Z" fill="black"/>
<path d="M37.1106 13.1605C36.6758 13.0588 36.2193 13.3122 36.0985 13.8691C36.0774 13.9644 36.142 13.9588 36.1989 13.9588C36.4321 13.9602 36.6653 13.9595 36.8985 13.9595C37.1429 13.9595 37.3852 13.9595 37.6296 13.9588C37.6865 13.9588 37.7511 13.9644 37.7315 13.8698C37.6612 13.5614 37.4779 13.2466 37.1106 13.1605Z" fill="black"/>
</svg>
