<svg width="64" height="62" viewBox="0 0 64 62" fill="none" xmlns="http://www.w3.org/2000/svg">
<path d="M9.88828 53C9.64748 53 9.45828 52.7981 9.45828 52.5411C9.45828 51.238 10.4387 50.6139 11.1439 50.1551C11.5739 49.8797 11.9695 49.6228 11.9695 49.3658C11.9695 49.1639 11.9867 48.4297 11.9867 47.2918C12.0555 41.9873 12.2275 27.8728 11.9695 26.2576C11.8319 25.4133 10.9891 24.9177 10.2495 24.9177C10.2323 24.9177 10.2323 24.9177 10.2151 24.9177C9.85388 24.9177 9.02829 25.0646 8.87349 26.2392C8.78749 26.8633 8.89069 27.3772 9.18309 27.7259C9.66468 28.35 10.5419 28.4051 10.5591 28.4051C10.7999 28.4234 10.9719 28.6253 10.9719 28.8823C10.9547 29.1392 10.7655 29.3228 10.5247 29.3228C10.4731 29.3228 9.25189 29.2494 8.52949 28.3133C8.08229 27.7443 7.92749 27.0101 8.03069 26.1108C8.21989 24.5873 9.28629 24.0184 10.2151 24C10.2323 24 10.2495 24 10.2667 24C11.3675 24 12.6231 24.7709 12.8467 26.0924C13.0875 27.5975 13.0015 38.2063 12.8811 47.2918C12.8639 48.4114 12.8639 49.1456 12.8639 49.3475C12.8639 50.1184 12.2275 50.5222 11.6083 50.9259C10.8343 51.4032 10.3355 51.7886 10.3355 52.5228C10.3183 52.7797 10.1291 53 9.88828 53Z" fill="#575C6B"/>
<path d="M20.093 53C19.8529 53 19.6642 52.798 19.6642 52.5408C19.6642 51.8062 19.1668 51.4389 18.3949 50.943C17.7773 50.5573 17.1427 50.1533 17.1427 49.3635C17.1427 49.1615 17.1255 48.4269 17.1255 47.3065C17.0054 38.2153 16.9025 27.5997 17.1598 26.0937C17.3828 24.7714 18.6178 24 19.7328 24C19.75 24 19.7671 24 19.7843 24C20.7106 24.0184 21.7569 24.5877 21.9628 26.1121C22.0828 27.012 21.9113 27.7467 21.4653 28.316C20.7277 29.2527 19.527 29.3262 19.4755 29.3262C19.2354 29.3262 19.0467 29.1425 19.0295 28.8854C19.0124 28.6282 19.2011 28.4262 19.4412 28.4079C19.4584 28.4079 20.3332 28.3528 20.8135 27.7283C21.0879 27.361 21.1909 26.8651 21.1051 26.2407C20.9507 25.0652 20.1274 24.9183 19.7671 24.9183C19.0124 24.8999 18.1547 25.3958 18.0175 26.259C17.7602 27.8752 17.9317 41.9804 18.0003 47.3065C18.0175 48.4269 18.0175 49.1799 18.0175 49.3819C18.0175 49.639 18.412 49.8961 18.8408 50.1716C19.5613 50.6308 20.5219 51.2369 20.5219 52.5592C20.5219 52.7796 20.3332 53 20.093 53Z" fill="#575C6B"/>
<path d="M25.8948 53C25.6532 53 25.4633 52.7981 25.4633 52.5412C25.4633 51.238 26.4471 50.614 27.1547 50.1552C27.5862 49.8799 27.9832 49.6229 27.9832 49.366C27.9832 49.1641 28.0004 48.4299 28.0004 47.292C28.0695 41.9878 28.2421 27.8738 27.9832 26.2587C27.8451 25.3961 26.9821 24.9006 26.2227 24.9189C25.8603 24.9189 25.0318 25.0657 24.8765 26.2404C24.7902 26.8644 24.8938 27.3783 25.1872 27.727C25.6704 28.351 26.5507 28.4061 26.5679 28.4061C26.8095 28.4245 26.9821 28.6263 26.9821 28.8833C26.9649 29.1402 26.775 29.3238 26.5334 29.3238C26.4816 29.3238 25.2562 29.2504 24.5313 28.3143C24.0826 27.7454 23.9272 27.0112 24.0308 26.1119C24.2206 24.5885 25.2907 24.0196 26.2227 24.0012C27.3273 23.9645 28.639 24.7537 28.8461 26.0935C29.0878 27.5985 29.0015 38.207 28.8807 47.292C28.8634 48.4116 28.8634 49.1457 28.8634 49.3476C28.8634 50.1185 28.2248 50.5223 27.6035 50.926C26.8268 51.4032 26.3263 51.7887 26.3263 52.5228C26.3263 52.7798 26.1364 53 25.8948 53Z" fill="#575C6B"/>
<path d="M38.093 53C37.8529 53 37.6642 52.798 37.6642 52.5408C37.6642 51.8062 37.1668 51.4389 36.3949 50.943C35.7773 50.5573 35.1427 50.1533 35.1427 49.3635C35.1427 49.1615 35.1255 48.4269 35.1255 47.3065C35.0054 38.2153 34.9025 27.5997 35.1598 26.0937C35.3828 24.7714 36.6178 24 37.7328 24C37.75 24 37.7671 24 37.7843 24C38.7106 24.0184 39.7569 24.5877 39.9628 26.1121C40.0828 27.012 39.9113 27.7467 39.4653 28.316C38.7277 29.2527 37.527 29.3262 37.4755 29.3262C37.2354 29.3262 37.0467 29.1425 37.0295 28.8854C37.0124 28.6282 37.2011 28.4262 37.4412 28.4079C37.4584 28.4079 38.3332 28.3528 38.8135 27.7283C39.0879 27.361 39.1909 26.8651 39.1051 26.2407C38.9507 25.0652 38.1274 24.9183 37.7671 24.9183C37.0124 24.8999 36.1547 25.3958 36.0175 26.259C35.7602 27.8752 35.9317 41.9804 36.0003 47.3065C36.0175 48.4269 36.0175 49.1799 36.0175 49.3819C36.0175 49.639 36.412 49.8961 36.8408 50.1716C37.5613 50.6308 38.5219 51.2369 38.5219 52.5592C38.5219 52.7796 38.3332 53 38.093 53Z" fill="#575C6B"/>
<path d="M43.9055 53C43.6647 53 43.4755 52.7981 43.4755 52.5411C43.4755 51.238 44.4559 50.6139 45.1611 50.1551C45.5911 49.8797 45.9867 49.6228 45.9867 49.3658C45.9867 49.1639 46.0039 48.4297 46.0039 47.2918C46.0727 41.9873 46.2447 27.8728 45.9867 26.2576C45.8491 25.3949 44.9719 24.8994 44.2323 24.9177C43.8711 24.9177 43.0455 25.0646 42.8907 26.2392C42.8047 26.8633 42.9079 27.3589 43.1831 27.7259C43.6647 28.35 44.5591 28.4051 44.5591 28.4051C44.7999 28.4234 44.9719 28.6253 44.9719 28.8823C44.9547 29.1392 44.7655 29.3228 44.5247 29.3228C44.4731 29.3228 43.2519 29.2494 42.5295 28.3133C42.0823 27.7443 41.9275 27.0101 42.0307 26.1108C42.2199 24.5873 43.2863 24.0184 44.2151 24C44.2323 24 44.2495 24 44.2667 24C45.3675 24 46.6231 24.7709 46.8467 26.0924C47.0875 27.5975 47.0015 38.2063 46.8811 47.2918C46.8639 48.4114 46.8639 49.1456 46.8639 49.3475C46.8639 50.1184 46.2275 50.5222 45.6083 50.9259C44.8343 51.4032 44.3355 51.7886 44.3355 52.5228C44.3355 52.7797 44.1463 53 43.9055 53Z" fill="#575C6B"/>
<path d="M54.093 53C53.8529 53 53.6642 52.798 53.6642 52.5408C53.6642 51.8062 53.1668 51.4389 52.3949 50.943C51.7773 50.5573 51.1427 50.1533 51.1427 49.3635C51.1427 49.1615 51.1255 48.4269 51.1255 47.3065C51.0054 38.2153 50.9025 27.5997 51.1598 26.0937C51.3828 24.7714 52.6178 24 53.7328 24C53.75 24 53.7671 24 53.7843 24C54.7106 24.0184 55.7569 24.5877 55.9628 26.1121C56.0828 27.012 55.9113 27.7467 55.4653 28.316C54.7277 29.2527 53.527 29.3262 53.4755 29.3262C53.2354 29.3262 53.0467 29.1425 53.0295 28.8854C53.0124 28.6282 53.2011 28.4262 53.4412 28.4079C53.4584 28.4079 54.3332 28.3528 54.8135 27.7283C55.0879 27.361 55.1909 26.8651 55.1051 26.2407C54.9507 25.0652 54.1274 24.9183 53.7671 24.9183C53.0124 24.8999 52.1547 25.3958 52.0175 26.259C51.7602 27.8752 51.9317 41.9804 52.0003 47.3065C52.0175 48.4269 52.0175 49.1799 52.0175 49.3819C52.0175 49.639 52.412 49.8961 52.8408 50.1716C53.5613 50.6308 54.5219 51.2369 54.5219 52.5592C54.5219 52.7796 54.3332 53 54.093 53Z" fill="#575C6B"/>
<path d="M55.553 55H8.46566C8.20489 55 8 54.78 8 54.5C8 54.22 8.20489 54 8.46566 54H55.5343C55.7951 54 56 54.22 56 54.5C56 54.78 55.7951 55 55.553 55Z" fill="#575C6B"/>
<path d="M21.5 48C21.22 48 21 47.8007 21 47.5471V33.4529C21 33.1993 21.22 33 21.5 33C21.78 33 22 33.1993 22 33.4529V47.5471C22 47.8007 21.78 48 21.5 48Z" fill="#575C6B"/>
<path d="M43.5 48C43.22 48 43 47.8007 43 47.5471V33.4529C43 33.1993 43.22 33 43.5 33C43.78 33 44 33.1993 44 33.4529V47.5471C44 47.8007 43.78 48 43.5 48Z" fill="#575C6B"/>
<path d="M62.5162 61.9798C62.2558 61.9798 62.0511 61.7581 62.0511 61.4758V58.0081H0.930301V61.496C0.930301 61.7782 0.725635 62 0.465151 62C0.204666 62 0 61.7782 0 61.496V57.504C0 57.2218 0.204666 57 0.465151 57H62.5349C62.7953 57 63 57.2218 63 57.504V61.496C62.9814 61.7581 62.7767 61.9798 62.5162 61.9798Z" fill="#575C6B"/>
<path d="M63.5374 33H54.2123C53.9533 33 53.7498 32.8 53.7498 32.5455C53.7498 32.2909 53.9533 32.0909 54.2123 32.0909H63.0749V22.9091H1.92511V32.0909H10.5471C10.8062 32.0909 11.0097 32.2909 11.0097 32.5455C11.0097 32.8 10.8062 33 10.5471 33H1.46256C1.20352 33 1 32.8 1 32.5455V22.4545C1 22.2 1.20352 22 1.46256 22H63.5374C63.7965 22 64 22.2 64 22.4545V32.5455C64 32.8 63.7965 33 63.5374 33Z" fill="#575C6B"/>
<path d="M3.5 59C3.22 59 3 58.7975 3 58.5398V34.4602C3 34.2025 3.22 34 3.5 34C3.78 34 4 34.2025 4 34.4602V58.5214C4 58.7791 3.78 59 3.5 59Z" fill="#575C6B"/>
<path d="M60.5 58C60.22 58 60 57.8022 60 57.5504V33.4496C60 33.1978 60.22 33 60.5 33C60.78 33 61 33.1978 61 33.4496V57.5324C61 57.7842 60.78 58 60.5 58Z" fill="#575C6B"/>
<path fill-rule="evenodd" clip-rule="evenodd" d="M8.47605 19H55.5426C55.7287 19 55.9149 18.8916 55.9708 18.6927C56.0453 18.512 55.9708 18.3132 55.8218 18.1867L32.3072 0.094887C32.1396 -0.031629 31.8976 -0.031629 31.73 0.094887L8.17816 18.1867C8.02922 18.3132 7.95474 18.512 8.02922 18.6927C8.10369 18.8735 8.27125 19 8.47605 19ZM54.2021 18.0963H9.81655L32.0279 1.03472L54.2021 18.0963Z" fill="#575C6B"/>
<path d="M8.5 22C8.22 22 8 21.8128 8 21.5745V18.4255C8 18.1872 8.22 18 8.5 18C8.78 18 9 18.1872 9 18.4255V21.5745C9 21.8128 8.78 22 8.5 22Z" fill="#575C6B"/>
<path d="M55.5 22C55.22 22 55 21.8128 55 21.5745V18.4255C55 18.1872 55.22 18 55.5 18C55.78 18 56 18.1872 56 18.4255V21.5745C56 21.8128 55.76 22 55.5 22Z" fill="#575C6B"/>
<path fill-rule="evenodd" clip-rule="evenodd" d="M28 11C28 13.2037 29.7963 15 32 15C34.2037 15 36 13.2037 36 11C36 8.7963 34.2037 7 32 7C29.7963 7 28 8.7963 28 11ZM28.9259 10.9815C28.9259 9.2963 30.2963 7.90741 32 7.90741C33.6852 7.90741 35.0741 9.2963 35.0741 10.9815C35.0741 12.6667 33.7037 14.0556 32 14.0556C30.3148 14.0556 28.9259 12.6667 28.9259 10.9815Z" fill="#575C6B"/>
</svg>
