<svg width="60" height="60" viewBox="0 0 60 60" fill="none" xmlns="http://www.w3.org/2000/svg">
<path d="M14.4986 39C14.4579 39 14.4172 39 14.3764 38.98C14.01 38.8799 5.60222 36.5988 2.4264 28.2946C-0.708705 20.0705 2.2839 9.38509 2.40604 8.92486C2.44676 8.78479 2.54855 8.68474 2.67069 8.6047C2.79284 8.54467 2.9557 8.52466 3.07785 8.58469C3.3425 8.68474 9.73486 10.9459 14.1118 6.16347C14.295 5.96337 14.6207 5.94336 14.8243 6.12345C15.0279 6.30354 15.0483 6.6237 14.865 6.8238C10.7935 11.286 5.01184 10.1655 3.24071 9.66523C2.69105 11.8663 0.716343 20.9709 3.36286 27.9144C6.35546 35.7384 14.5393 37.9595 14.6207 37.9795C14.8854 38.0595 15.0483 38.3197 14.9872 38.5998C14.9261 38.8599 14.7225 39 14.4986 39Z" fill="#575C6B"/>
<path d="M14.5089 39C14.2853 39 14.0819 38.8598 14.0209 38.6196C13.9396 38.3593 14.1023 38.079 14.3869 37.9989C14.4683 37.9789 22.6421 35.7364 25.631 27.9277C28.2743 20.98 26.302 11.8699 25.753 9.66746C23.984 10.148 18.2298 11.2692 14.1429 6.8243C13.9599 6.62408 13.9803 6.30372 14.1836 6.12352C14.3869 5.94332 14.7123 5.96335 14.8952 6.16357C19.2871 10.9689 25.8547 8.60628 25.9157 8.58626C26.058 8.54621 26.2003 8.54621 26.3223 8.60628C26.4443 8.66635 26.546 8.78648 26.5866 8.92663C26.7086 9.38715 29.7179 20.079 26.5663 28.3081C23.3944 36.6174 14.9969 38.8999 14.6309 39C14.6106 39 14.5496 39 14.5089 39Z" fill="#575C6B"/>
<path fill-rule="evenodd" clip-rule="evenodd" d="M16.1782 60C10.0525 60 5.13969 59.8773 4.23524 59.5093C-0.637424 57.9004 -0.000774309 53.7495 0.0584551 53.3633C0.0609423 53.3471 0.0624113 53.3376 0.0624113 53.3351C0.103523 53.0897 0.329637 52.9262 0.55575 52.9262H40.064C40.3518 52.9262 40.5779 53.1511 40.5779 53.4169C40.5779 53.4373 40.6807 56.2586 42.284 57.6693C42.8801 58.2009 43.5996 58.4667 44.4629 58.4871C44.6274 58.4871 44.7713 58.4871 44.9357 58.4667C49.2319 58.1395 51.0819 52.8035 50.568 42.1315C50.4035 38.799 49.828 34.6897 49.2113 30.335C48.0602 22.1571 46.7857 13.0798 48.0602 7.08951C48.0602 7.06907 48.0602 7.04862 48.0807 7.02818C48.348 5.80151 48.718 4.71794 49.2319 3.79794C51.4519 -0.270525 54.0008 -0.229636 55.3369 0.179255C58.2147 1.03793 60.2087 4.65661 59.9825 7.21218C59.962 7.47796 59.7359 7.6824 59.4687 7.6824H48.9852C47.8665 13.4073 49.0824 22.0948 50.1835 29.9617L50.2185 30.2123C50.8352 34.5874 51.4108 38.7377 51.5752 42.0906C51.8425 47.7128 51.4725 51.8426 50.4447 54.7049C49.3758 57.6898 47.5257 59.3049 44.9768 59.4889C44.7918 59.5093 44.6068 59.5093 44.4424 59.5093C40.8245 59.6524 26.7027 60 16.1782 60ZM1.02853 53.9689C0.966866 54.9502 1.17242 57.424 4.58469 58.5484C4.59496 58.5484 4.60524 58.5536 4.61552 58.5587C4.6258 58.5638 4.63608 58.5689 4.64635 58.5689C6.0647 59.2231 26.5383 58.9573 41.7701 58.5893C41.7084 58.5484 41.6673 58.5075 41.6057 58.4462C40.1257 57.1173 39.7145 54.9298 39.6118 53.9484H1.02853V53.9689ZM58.9753 6.70107H49.2319C49.458 5.82195 49.7663 5.02461 50.1363 4.3295C51.5547 1.75349 53.2402 0.669925 55.0492 1.20148C57.2692 1.85571 58.8931 4.61572 58.9753 6.70107Z" fill="#575C6B"/>
<path d="M9.50561 9.98066C9.2436 9.98066 9.0219 9.76789 9.00174 9.51644C9.00174 9.32302 8.8405 4.97099 11.6219 2.18569C13.073 0.73501 15.0684 0 17.5273 0C22.8482 0 53 0 53 0V0.967118C53 0.967118 22.828 0.967118 17.5273 0.967118C15.3505 0.967118 13.6172 1.60542 12.3475 2.86267C9.84825 5.35783 9.98933 9.43907 9.98933 9.4971C10.0095 9.76789 9.78778 9.98066 9.50561 10C9.52577 9.98066 9.50561 9.98066 9.50561 9.98066Z" fill="#575C6B"/>
<path d="M11.5 54C11.22 54 11 53.7723 11 53.4825V38.5175C11 38.2277 11.22 38 11.5 38C11.78 38 12 38.2277 12 38.5175V53.5032C12 53.7723 11.76 54 11.5 54Z" fill="#575C6B"/>
<path d="M44.4842 11H30.5158C30.227 11 30 10.78 30 10.5C30 10.22 30.227 10 30.5158 10H44.4842C44.773 10 45 10.22 45 10.5C45 10.78 44.773 11 44.4842 11Z" fill="#575C6B"/>
<path d="M43.5087 18H35.4913C35.2162 18 35 17.78 35 17.5C35 17.22 35.2162 17 35.4913 17H43.5087C43.7838 17 44 17.22 44 17.5C44 17.78 43.7838 18 43.5087 18Z" fill="#575C6B"/>
<path d="M43.489 25H31.511C31.2248 25 31 24.78 31 24.5C31 24.22 31.2248 24 31.511 24H43.489C43.7752 24 44 24.22 44 24.5C44 24.78 43.7752 25 43.489 25Z" fill="#575C6B"/>
<path d="M44.4842 31H30.5158C30.227 31 30 30.78 30 30.5C30 30.22 30.227 30 30.5158 30H44.4842C44.773 30 45 30.22 45 30.5C45 30.78 44.773 31 44.4842 31Z" fill="#575C6B"/>
<path d="M44.4665 38H26.513C26.2257 38 26 37.78 26 37.5C26 37.22 26.2257 37 26.513 37H44.487C44.7743 37 45 37.22 45 37.5C45 37.78 44.7538 38 44.4665 38Z" fill="#575C6B"/>
<path d="M45.4735 46H17.5265C17.2317 46 17 45.78 17 45.5C17 45.22 17.2317 45 17.5265 45H45.4735C45.7683 45 46 45.22 46 45.5C46 45.78 45.7683 46 45.4735 46Z" fill="#575C6B"/>
<path fill-rule="evenodd" clip-rule="evenodd" d="M14.2493 26.9391C14.3295 26.9797 14.4298 27 14.51 27C14.6103 27 14.6905 26.9797 14.7507 26.9391L17.7393 25.1929C17.8997 25.0914 18 24.9289 18 24.7462V21.2538C18 21.0711 17.8997 20.8883 17.7393 20.8071L14.7507 19.0609C14.5903 18.9797 14.4097 18.9797 14.2493 19.0609L11.2607 20.8071C11.1003 20.9086 11 21.0711 11 21.2538V24.7462C11 24.9289 11.1003 25.1117 11.2607 25.1929L14.2493 26.9391ZM14.51 25.9239L12.0229 24.4619V21.5584L14.51 20.0964L16.9971 21.5584V24.4619L14.51 25.9239Z" fill="#575C6B"/>
<path d="M14.5 20C14.22 20 14 19.7898 14 19.5223V14.4777C14 14.2102 14.22 14 14.5 14C14.78 14 15 14.2102 15 14.4777V19.5223C15 19.7898 14.78 20 14.5 20Z" fill="#575C6B"/>
<path d="M17.5269 23C17.3399 23 17.1528 22.876 17.0489 22.6529C16.9242 22.3307 17.0489 21.9836 17.2983 21.8349L22.2653 19.0584C22.5354 18.9096 22.8264 19.0584 22.9511 19.3558C23.0758 19.6781 22.9511 20.0252 22.7017 20.1739L17.7347 22.9504C17.6932 22.9752 17.61 23 17.5269 23Z" fill="#575C6B"/>
<path d="M22.4245 29C22.3117 29 22.1989 28.9802 22.1087 28.9008L17.2373 25.9035C16.9892 25.7447 16.9215 25.4272 17.1019 25.2088C17.2824 24.9905 17.6432 24.9309 17.8913 25.0897L22.7627 28.0869C23.0108 28.2457 23.0785 28.5633 22.8981 28.7817C22.7853 28.9206 22.6049 29 22.4245 29Z" fill="#575C6B"/>
<path d="M14.5 32C14.22 32 14 31.7898 14 31.5223V26.4777C14 26.2102 14.22 26 14.5 26C14.78 26 15 26.2102 15 26.4777V31.5223C15 31.7898 14.78 32 14.5 32Z" fill="#575C6B"/>
<path d="M6.56603 29C6.38821 29 6.21039 28.919 6.09925 28.7772C5.92142 28.5544 5.98811 28.2302 6.25484 28.0682L11.1228 25.0904C11.3673 24.9284 11.7229 24.9892 11.9008 25.2322C12.0786 25.4753 12.0119 25.7792 11.7452 25.9412L6.87723 28.919C6.78831 28.9797 6.67717 29 6.56603 29Z" fill="#575C6B"/>
<path d="M11.4624 22C11.3782 22 11.2941 21.9764 11.2309 21.9292L6.28502 19.1217C6.03246 18.9801 5.92723 18.6262 6.05351 18.3195C6.17979 18.0364 6.49548 17.9184 6.76908 18.06L11.715 20.8675C11.9675 21.0091 12.0728 21.363 11.9465 21.6697C11.8413 21.882 11.6518 22 11.4624 22Z" fill="#575C6B"/>
</svg>
